<svg width="25" height="24" viewBox="0 0 25 24" fill="none" xmlns="http://www.w3.org/2000/svg">
<path d="M12.961 14.5041L12.9602 14.5041C12.8944 14.5045 12.8292 14.4919 12.7682 14.467C12.7076 14.4422 12.6524 14.4057 12.6058 14.3597C12.6056 14.3595 12.6054 14.3593 12.6052 14.3591L8.60663 10.3605C8.51209 10.266 8.45898 10.1378 8.45898 10.0041C8.45898 9.8704 8.51209 9.74218 8.60663 9.64764C8.70116 9.55311 8.82938 9.5 8.96308 9.5C9.09667 9.5 9.22479 9.55303 9.3193 9.64743C9.31938 9.6475 9.31945 9.64757 9.31952 9.64764L12.609 12.9471L12.9625 13.3017L13.3166 12.9476L16.5906 9.67364C16.6844 9.5984 16.8023 9.55935 16.9228 9.56401C17.0487 9.56887 17.168 9.62103 17.2571 9.71008C17.3461 9.79913 17.3983 9.9185 17.4032 10.0443C17.4078 10.1648 17.3688 10.2828 17.2935 10.3765L13.311 14.3591C13.3108 14.3593 13.3106 14.3595 13.3103 14.3597C13.2173 14.4517 13.0918 14.5035 12.961 14.5041Z" fill="white" stroke="white"/>
</svg>
