<svg width="26" height="26" viewBox="0 0 26 26" fill="none" xmlns="http://www.w3.org/2000/svg">
<path d="M13.5 3C12.4904 3 11.9052 3.72952 11.6167 4.4027C10.0587 4.73179 7.3414 6.1619 7.00502 9.70099C6.87849 11.7883 6.64208 15.6744 5.32244 16.3185C5.2309 16.3631 5.14658 16.4242 5.07533 16.4996C4.96521 16.6156 4 17.6791 4 19.3636C4 19.8655 4.38691 20.2727 4.86364 20.2727H10.5886C10.759 21.8059 11.9985 23 13.5 23C15.0015 23 16.241 21.8059 16.4114 20.2727H22.1364C22.6131 20.2727 23 19.8655 23 19.3636C23 17.6791 22.0348 16.6156 21.9247 16.4996C21.8534 16.4246 21.7691 16.3626 21.6776 16.3176C20.3584 15.6736 20.1212 11.7881 19.9916 9.66815C19.657 6.15724 16.94 4.73045 15.3825 4.40181C15.0944 3.72908 14.5096 3 13.5 3ZM13.5 4.81818C13.7604 4.81818 13.8311 5.09994 13.8829 5.38903C13.9593 5.81403 14.3137 6.14276 14.7339 6.14276C14.7658 6.14276 17.9528 6.47729 18.2711 9.81729C18.4909 13.4237 18.8502 16.7504 20.7709 17.8713C20.8517 17.9804 20.9851 18.1823 21.0939 18.4545H5.90607C6.01532 18.1805 6.14882 17.979 6.22741 17.8722C8.14943 16.7522 8.50918 13.4251 8.72639 9.85014C9.04723 6.47741 12.2342 6.14276 12.2661 6.14276C12.6794 6.14276 13.0398 5.79836 13.1154 5.3979C13.1685 5.11836 13.2392 4.81818 13.5 4.81818ZM12.3496 20.2727H14.6504C14.5017 20.7965 14.0453 21.1818 13.5 21.1818C12.9547 21.1818 12.4983 20.7965 12.3496 20.2727Z" fill="#7D8592"/>
</svg>
